<svg width="1229" height="152" viewBox="0 0 1229 152" fill="none" xmlns="http://www.w3.org/2000/svg">
<path d="M206.41 127.792C199.754 127.792 193.866 126.427 188.746 123.696C183.711 120.88 179.743 116.784 176.842 111.408C174.026 106.032 172.618 99.376 172.618 91.44V70.96C172.618 59.0987 175.775 50.096 182.09 43.952C188.404 37.7227 196.895 34.608 207.562 34.608C218.143 34.608 226.207 37.5093 231.754 43.312C237.3 49.1147 240.074 56.88 240.074 66.608V67.248H229.45V66.352C229.45 62.0853 228.682 58.288 227.146 54.96C225.61 51.632 223.22 49.0293 219.978 47.152C216.735 45.1893 212.596 44.208 207.562 44.208C199.967 44.208 194.036 46.5547 189.77 51.248C185.503 55.856 183.37 62.3413 183.37 70.704V91.696C183.37 100.059 185.503 106.587 189.77 111.28C194.036 115.888 200.01 118.192 207.69 118.192C215.199 118.192 220.703 116.059 224.202 111.792C227.786 107.525 229.577 101.851 229.577 94.768V92.592H202.442V83.376H240.074V126H230.346V116.272H228.554C227.615 118.149 226.292 119.984 224.586 121.776C222.879 123.568 220.575 125.019 217.674 126.128C214.772 127.237 211.018 127.792 206.41 127.792ZM260.062 126V36.4H270.174V126H260.062ZM320.365 127.792C314.05 127.792 308.461 126.469 303.597 123.824C298.818 121.179 295.063 117.467 292.333 112.688C289.687 107.824 288.365 102.107 288.365 95.536V93.872C288.365 87.3867 289.687 81.712 292.333 76.848C295.063 71.984 298.818 68.2293 303.597 65.584C308.461 62.9387 314.05 61.616 320.365 61.616C326.679 61.616 332.226 62.9387 337.005 65.584C341.869 68.2293 345.623 71.984 348.269 76.848C350.999 81.712 352.365 87.3867 352.365 93.872V95.536C352.365 102.107 350.999 107.824 348.269 112.688C345.623 117.467 341.869 121.179 337.005 123.824C332.226 126.469 326.679 127.792 320.365 127.792ZM320.365 118.704C327.021 118.704 332.311 116.613 336.237 112.432C340.247 108.165 342.253 102.448 342.253 95.28V94.128C342.253 86.96 340.247 81.2853 336.237 77.104C332.311 72.8373 327.021 70.704 320.365 70.704C313.794 70.704 308.503 72.8373 304.493 77.104C300.482 81.2853 298.477 86.96 298.477 94.128V95.28C298.477 102.448 300.482 108.165 304.493 112.432C308.503 116.613 313.794 118.704 320.365 118.704ZM405.25 127.792C398.764 127.792 393.687 126.555 390.018 124.08C386.434 121.605 383.831 118.789 382.21 115.632H380.418V126H370.562V36.4H380.674V73.264H382.466C383.49 71.3013 384.94 69.4667 386.818 67.76C388.695 65.968 391.127 64.5173 394.114 63.408C397.186 62.2133 400.898 61.616 405.25 61.616C410.711 61.616 415.66 62.9387 420.098 65.584C424.62 68.144 428.204 71.856 430.85 76.72C433.495 81.4987 434.818 87.216 434.818 93.872V95.536C434.818 102.192 433.452 107.952 430.722 112.816C428.076 117.68 424.492 121.392 419.97 123.952C415.532 126.512 410.626 127.792 405.25 127.792ZM402.562 118.832C409.047 118.832 414.295 116.784 418.306 112.688C422.402 108.507 424.45 102.704 424.45 95.28V94.128C424.45 86.704 422.402 80.944 418.306 76.848C414.295 72.6667 409.047 70.576 402.562 70.576C396.162 70.576 390.871 72.6667 386.69 76.848C382.594 80.944 380.546 86.704 380.546 94.128V95.28C380.546 102.704 382.594 108.507 386.69 112.688C390.871 116.784 396.162 118.832 402.562 118.832ZM472.137 127.792C467.785 127.792 463.817 127.024 460.233 125.488C456.649 123.952 453.833 121.733 451.785 118.832C449.737 115.931 448.713 112.389 448.713 108.208C448.713 103.941 449.737 100.443 451.785 97.712C453.833 94.896 456.649 92.8053 460.233 91.44C463.817 89.9893 467.827 89.264 472.265 89.264H493.385V84.656C493.385 80.2187 492.062 76.72 489.417 74.16C486.857 71.6 483.017 70.32 477.897 70.32C472.862 70.32 468.937 71.5573 466.121 74.032C463.305 76.4213 461.385 79.664 460.361 83.76L450.889 80.688C451.913 77.1893 453.534 74.032 455.753 71.216C457.971 68.3147 460.915 66.0107 464.585 64.304C468.339 62.512 472.819 61.616 478.025 61.616C486.046 61.616 492.275 63.7067 496.713 67.888C501.15 71.984 503.369 77.7867 503.369 85.296V113.584C503.369 116.144 504.563 117.424 506.952 117.424H512.713V126H503.881C501.065 126 498.803 125.232 497.097 123.696C495.39 122.075 494.537 119.941 494.537 117.296V116.656H493.001C492.062 118.277 490.782 119.984 489.161 121.776C487.625 123.483 485.491 124.891 482.761 126C480.03 127.195 476.489 127.792 472.137 127.792ZM473.289 119.088C479.262 119.088 484.083 117.339 487.753 113.84C491.507 110.256 493.385 105.264 493.385 98.864V97.456H472.649C468.638 97.456 465.31 98.352 462.665 100.144C460.105 101.851 458.825 104.453 458.825 107.952C458.825 111.451 460.147 114.181 462.793 116.144C465.523 118.107 469.022 119.088 473.289 119.088ZM526.562 126V36.4H536.674V126H526.562ZM880.627 127.792C874.141 127.792 868.339 126.64 863.219 124.336C858.099 122.032 854.045 118.576 851.059 113.968C848.157 109.275 846.707 103.429 846.707 96.432V93.744H857.331V96.432C857.331 103.856 859.507 109.403 863.859 113.072C868.211 116.656 873.8 118.448 880.627 118.448C887.624 118.448 892.957 116.869 896.627 113.712C900.296 110.555 902.131 106.587 902.131 101.808C902.131 98.48 901.277 95.8347 899.571 93.872C897.949 91.9093 895.645 90.3307 892.659 89.136C889.672 87.856 886.173 86.7467 882.163 85.808L875.507 84.144C870.301 82.7787 865.693 81.1147 861.683 79.152C857.672 77.1893 854.515 74.6293 852.211 71.472C849.992 68.2293 848.883 64.0907 848.883 59.056C848.883 54.0213 850.12 49.6693 852.595 46C855.155 42.3307 858.696 39.5147 863.219 37.552C867.827 35.5893 873.117 34.608 879.091 34.608C885.149 34.608 890.568 35.6747 895.347 37.808C900.211 39.856 904.008 42.928 906.739 47.024C909.555 51.0347 910.963 56.112 910.963 62.256V67.632H900.339V62.256C900.339 57.904 899.4 54.4053 897.523 51.76C895.731 49.1147 893.213 47.152 889.971 45.872C886.813 44.592 883.187 43.952 879.091 43.952C873.203 43.952 868.467 45.2747 864.883 47.92C861.299 50.48 859.507 54.1493 859.507 58.928C859.507 62.0853 860.275 64.6453 861.811 66.608C863.347 68.5707 865.523 70.192 868.339 71.472C871.155 72.6667 874.525 73.7333 878.451 74.672L885.107 76.336C890.312 77.4453 894.963 78.9813 899.059 80.944C903.24 82.8213 906.568 85.424 909.043 88.752C911.517 91.9947 912.755 96.2613 912.755 101.552C912.755 106.843 911.432 111.451 908.787 115.376C906.141 119.301 902.387 122.373 897.523 124.592C892.744 126.725 887.112 127.792 880.627 127.792ZM929.687 126V63.408H939.799V126H929.687ZM934.807 53.68C932.588 53.68 930.711 52.9547 929.175 51.504C927.724 50.0533 926.999 48.2187 926.999 46C926.999 43.696 927.724 41.8187 929.175 40.368C930.711 38.9173 932.588 38.192 934.807 38.192C937.025 38.192 938.86 38.9173 940.311 40.368C941.761 41.8187 942.487 43.696 942.487 46C942.487 48.2187 941.761 50.0533 940.311 51.504C938.86 52.9547 937.025 53.68 934.807 53.68ZM957.99 95.024V93.232C957.99 86.6613 959.312 81.0293 961.958 76.336C964.603 71.6427 968.187 68.016 972.71 65.456C977.232 62.896 982.182 61.616 987.558 61.616C994.128 61.616 999.163 62.896 1002.66 65.456C1006.25 67.9307 1008.89 70.704 1010.6 73.776H1012.39V63.408H1021.99V140.592C1021.99 144.005 1021.05 146.693 1019.17 148.656C1017.3 150.619 1014.57 151.6 1010.98 151.6H968.486V142.64H1008.29C1010.85 142.64 1012.13 141.36 1012.13 138.8V114.992H1010.34C1009.32 116.869 1007.87 118.704 1005.99 120.496C1004.11 122.288 1001.68 123.781 998.694 124.976C995.707 126.085 991.995 126.64 987.558 126.64C982.182 126.64 977.232 125.36 972.71 122.8C968.187 120.24 964.603 116.613 961.958 111.92C959.312 107.141 957.99 101.509 957.99 95.024ZM990.246 117.68C996.731 117.68 1001.98 115.632 1005.99 111.536C1010.09 107.44 1012.13 101.808 1012.13 94.64V93.616C1012.13 86.3627 1010.09 80.7307 1005.99 76.72C1001.98 72.624 996.731 70.576 990.246 70.576C983.846 70.576 978.555 72.624 974.374 76.72C970.278 80.7307 968.23 86.3627 968.23 93.616V94.64C968.23 101.808 970.278 107.44 974.374 111.536C978.555 115.632 983.846 117.68 990.246 117.68ZM1043.19 126V63.408H1053.04V74.032H1054.83C1056.2 71.0453 1058.5 68.3573 1061.75 65.968C1065.07 63.4933 1069.94 62.256 1076.34 62.256C1081.03 62.256 1085.21 63.2373 1088.88 65.2C1092.64 67.1627 1095.62 70.064 1097.84 73.904C1100.06 77.744 1101.17 82.48 1101.17 88.112V126H1091.06V88.88C1091.06 82.6507 1089.48 78.128 1086.32 75.312C1083.25 72.496 1079.07 71.088 1073.78 71.088C1067.72 71.088 1062.77 73.0507 1058.93 76.976C1055.18 80.9013 1053.3 86.7467 1053.3 94.512V126H1043.19ZM1140.89 127.792C1136.53 127.792 1132.57 127.024 1128.98 125.488C1125.4 123.952 1122.58 121.733 1120.53 118.832C1118.49 115.931 1117.46 112.389 1117.46 108.208C1117.46 103.941 1118.49 100.443 1120.53 97.712C1122.58 94.896 1125.4 92.8053 1128.98 91.44C1132.57 89.9893 1136.58 89.264 1141.01 89.264H1162.13V84.656C1162.13 80.2187 1160.81 76.72 1158.17 74.16C1155.61 71.6 1151.77 70.32 1146.65 70.32C1141.61 70.32 1137.69 71.5573 1134.87 74.032C1132.05 76.4213 1130.13 79.664 1129.11 83.76L1119.64 80.688C1120.66 77.1893 1122.28 74.032 1124.5 71.216C1126.72 68.3147 1129.67 66.0107 1133.33 64.304C1137.09 62.512 1141.57 61.616 1146.77 61.616C1154.8 61.616 1161.03 63.7067 1165.46 67.888C1169.9 71.984 1172.12 77.7867 1172.12 85.296V113.584C1172.12 116.144 1173.31 117.424 1175.7 117.424H1181.46V126H1172.63C1169.81 126 1167.55 125.232 1165.85 123.696C1164.14 122.075 1163.29 119.941 1163.29 117.296V116.656H1161.75C1160.81 118.277 1159.53 119.984 1157.91 121.776C1156.37 123.483 1154.24 124.891 1151.51 126C1148.78 127.195 1145.24 127.792 1140.89 127.792ZM1142.04 119.088C1148.01 119.088 1152.83 117.339 1156.5 113.84C1160.26 110.256 1162.13 105.264 1162.13 98.864V97.456H1141.4C1137.39 97.456 1134.06 98.352 1131.41 100.144C1128.85 101.851 1127.57 104.453 1127.57 107.952C1127.57 111.451 1128.9 114.181 1131.54 116.144C1134.27 118.107 1137.77 119.088 1142.04 119.088ZM1195.31 126V36.4H1205.42V126H1195.31Z" fill="black"/>
<path d="M579.569 126V46.128H550.769V36.4H619.121V46.128H590.321V126H579.569ZM649.109 127.792C642.794 127.792 637.247 126.469 632.469 123.824C627.69 121.093 623.978 117.296 621.333 112.432C618.687 107.568 617.365 101.936 617.365 95.536V94C617.365 87.5147 618.687 81.84 621.333 76.976C623.978 72.112 627.647 68.3573 632.341 65.712C637.034 62.9813 642.41 61.616 648.469 61.616C654.357 61.616 659.562 62.896 664.085 65.456C668.607 67.9307 672.149 71.5147 674.709 76.208C677.269 80.9013 678.549 86.4053 678.549 92.72V97.328H627.477C627.733 104.069 629.909 109.36 634.005 113.2C638.101 116.955 643.221 118.832 649.365 118.832C654.741 118.832 658.879 117.595 661.781 115.12C664.682 112.645 666.901 109.701 668.437 106.288L677.141 110.512C675.861 113.157 674.069 115.803 671.765 118.448C669.546 121.093 666.602 123.312 662.933 125.104C659.349 126.896 654.741 127.792 649.109 127.792ZM627.605 89.008H668.309C667.967 83.2053 665.962 78.6827 662.293 75.44C658.709 72.1973 654.101 70.576 648.469 70.576C642.751 70.576 638.058 72.1973 634.389 75.44C630.719 78.6827 628.458 83.2053 627.605 89.008ZM724.987 127.792C718.928 127.792 713.467 126.512 708.603 123.952C703.824 121.307 700.027 117.552 697.211 112.688C694.48 107.824 693.115 102.064 693.115 95.408V94C693.115 87.2587 694.48 81.4987 697.211 76.72C700.027 71.856 703.824 68.144 708.603 65.584C713.467 62.9387 718.928 61.616 724.987 61.616C730.96 61.616 736.037 62.7253 740.219 64.944C744.485 67.1627 747.813 70.1067 750.202 73.776C752.677 77.4453 754.256 81.3707 754.939 85.552L745.083 87.6C744.656 84.528 743.632 81.712 742.011 79.152C740.475 76.592 738.299 74.544 735.483 73.008C732.667 71.472 729.211 70.704 725.115 70.704C720.933 70.704 717.179 71.6427 713.851 73.52C710.608 75.3973 708.005 78.0853 706.043 81.584C704.165 85.0827 703.227 89.264 703.227 94.128V95.28C703.227 100.144 704.165 104.325 706.043 107.824C708.005 111.323 710.608 114.011 713.851 115.888C717.179 117.765 720.933 118.704 725.115 118.704C731.344 118.704 736.08 117.083 739.323 113.84C742.651 110.597 744.699 106.587 745.467 101.808L755.451 103.984C754.512 108.08 752.805 111.963 750.331 115.632C747.856 119.301 744.485 122.245 740.219 124.464C736.037 126.683 730.96 127.792 724.987 127.792ZM772.687 126V36.4H782.799V73.392H784.591C785.444 71.5147 786.724 69.7653 788.431 68.144C790.223 66.4373 792.484 65.0293 795.215 63.92C798.031 62.8107 801.572 62.256 805.839 62.256C810.532 62.256 814.713 63.28 818.383 65.328C822.137 67.2907 825.124 70.192 827.343 74.032C829.561 77.7867 830.671 82.48 830.671 88.112V126H820.559V88.88C820.559 82.6507 818.98 78.128 815.823 75.312C812.751 72.496 808.569 71.088 803.279 71.088C797.22 71.088 792.271 73.0507 788.431 76.976C784.676 80.9013 782.799 86.7467 782.799 94.512V126H772.687Z" fill="#E53935"/>
<path opacity="0.8" d="M37 123.47L70.9543 66H93.5905L59.6362 123.47H37Z" fill="url(#paint0_linear_9_10)"/>
<path d="M74 122.838L107.954 51H130.591L96.6362 122.838H74Z" fill="url(#paint1_linear_9_10)"/>
<path opacity="0.8" d="M111.126 123.322L140.798 77.1668L163.331 75L133.658 121.155L111.126 123.322Z" fill="url(#paint2_linear_9_10)"/>
<path d="M15.8595 122.568C24.6184 122.568 31.719 117.964 31.719 112.284C31.719 106.604 24.6184 102 15.8595 102C7.10054 102 0 106.604 0 112.284C0 117.964 7.10054 122.568 15.8595 122.568Z" fill="#E53935"/>
<defs>
<linearGradient id="paint0_linear_9_10" x1="17.9543" y1="59.9229" x2="75.4175" y2="116.507" gradientUnits="userSpaceOnUse">
<stop stop-color="#E53935"/>
<stop offset="0.509615" stop-color="#E53935"/>
<stop offset="1" stop-color="#E53935"/>
</linearGradient>
<linearGradient id="paint1_linear_9_10" x1="74" y1="51" x2="143.841" y2="106.017" gradientUnits="userSpaceOnUse">
<stop stop-color="#E53935"/>
<stop offset="0.509615" stop-color="#E53935"/>
<stop offset="1" stop-color="#E53935"/>
</linearGradient>
<linearGradient id="paint2_linear_9_10" x1="107" y1="80.417" x2="153.584" y2="130.745" gradientUnits="userSpaceOnUse">
<stop stop-color="#E53935"/>
<stop offset="0.509615" stop-color="#E53935"/>
<stop offset="1" stop-color="#E53935"/>
</linearGradient>
</defs>
</svg>
